<?xml version="1.0" encoding="UTF-8"?>
<svg width="32" height="32" viewBox="0 0 32 32" xmlns="http://www.w3.org/2000/svg">
  <path d="M16 4L8 12H2V20H8L16 28V4Z" fill="black"/>
  <path d="M21.17 8.83C23.27 10.93 24.5 13.83 24.5 17C24.5 20.17 23.27 23.07 21.17 25.17L19.76 23.76C21.46 22.06 22.5 19.63 22.5 17C22.5 14.37 21.46 11.94 19.76 10.24L21.17 8.83Z" fill="black"/>
  <path d="M25.07 4.93C28.27 8.13 30 12.37 30 17C30 21.63 28.27 25.87 25.07 29.07L23.66 27.66C26.46 24.86 28 21.07 28 17C28 12.93 26.46 9.14 23.66 6.34L25.07 4.93Z" fill="black"/>
</svg>